<?xml version="1.0" encoding="UTF-8" standalone="no"?>
<svg xmlns="http://www.w3.org/2000/svg" version="1.2" baseProfile="tiny" viewBox="0 0 1920 1080">
<g stroke-width="2.00" fill="none" stroke-linecap="butt">
<path stroke="#292f41" vector-effect="non-scaling-stroke" d="
  M 451.81 0.00
  L 532.80 179.35
  L 625.00 382.50
  L 881.49 947.79
  L 896.26 980.77
  L 896.57 981.29
  L 896.88 981.47
  L 896.88 981.47
  L 897.20 981.30
  L 897.51 980.77
  L 1041.67 661.07
  L 1041.97 660.57
  L 1042.27 660.41
  L 1042.27 660.41
  L 1042.27 660.41
  L 1042.57 660.57
  L 1042.87 661.07
  L 1147.56 892.70
  L 1155.69 910.98
  L 1170.99 945.79
  L 1181.19 968.56
  L 1231.29 1079.04
  L 1231.30 1079.40
  L 1231.05 1079.65
  L 1231.05 1079.65
  L 1231.03 1079.66
  L 1229.94 1080.00"
/>
<path stroke="#292f41" vector-effect="non-scaling-stroke" d="
  M 476.94 1080.00
  L 476.19 1077.06
  L 2.31 29.19
  L 1.25 26.40
  L 0.51 23.43
  L 0.10 20.27
  L 0.00 16.94"
/>
<path stroke="#292f41" vector-effect="non-scaling-stroke" d="
  M 611.56 0.00
  L 611.65 0.83
  L 612.06 1.94
  L 631.13 44.10
  L 657.50 103.06
  L 661.46 111.65
  L 666.06 121.12
  L 673.26 135.94
  L 679.69 149.81
  L 895.16 628.85
  L 895.20 628.91
  L 895.45 629.04
  L 895.71 628.93
  L 896.73 627.57
  L 897.50 626.15
  L 961.84 482.84
  L 961.94 482.38
  L 961.84 481.91
  L 802.39 129.19
  L 802.33 129.01
  L 802.51 128.30
  L 803.18 127.99
  L 826.31 128.15
  L 893.46 127.97
  L 961.21 128.00
  L 962.04 128.25
  L 962.61 128.92
  L 1040.51 303.57
  L 1041.02 304.43
  L 1041.53 304.71
  L 1041.53 304.71
  L 1042.05 304.43
  L 1042.56 303.57
  L 1080.78 218.21
  L 1119.19 132.94
  L 1121.30 128.74
  L 1121.62 128.41
  L 1122.05 128.27
  L 1128.51 127.96
  L 1132.90 127.96
  L 1143.73 128.15
  L 1205.53 127.96
  L 1267.34 128.22
  L 1274.15 127.99
  L 1277.07 127.95
  L 1281.00 128.20
  L 1281.26 128.35
  L 1281.32 128.65
  L 1281.30 128.70
  L 1121.45 483.46
  L 1121.28 484.27
  L 1121.45 485.07
  L 1238.73 747.80
  L 1247.14 765.96
  L 1263.06 800.94
  L 1383.69 1071.31
  L 1385.91 1076.51
  L 1387.19 1080.00"
/>
<path stroke="#292f41" vector-effect="non-scaling-stroke" d="
  M 1464.06 0.00
  L 1909.52 984.87
  L 1913.67 993.53
  L 1916.84 1000.82
  L 1918.52 1005.40
  L 1920.00 1010.06"
/>
<path stroke="#8e8e95" vector-effect="non-scaling-stroke" d="
  M 1571.31 0.00
  L 1571.31 0.65
  L 1571.56 1.44
  L 1919.19 770.31
  L 1919.62 770.81
  L 1920.00 770.31"
/>
<path stroke="#f3cf85" vector-effect="non-scaling-stroke" d="
  M 1688.81 0.00
  L 1689.57 2.36
  L 1690.69 5.06
  L 1918.25 508.25
  L 1919.11 509.82
  L 1920.00 510.81"
/>
<path stroke="#dea32d" vector-effect="non-scaling-stroke" d="
  M 1816.31 0.00
  L 1816.05 0.93
  L 1816.27 1.96
  L 1918.54 228.04
  L 1919.15 228.78
  L 1919.55 229.23
  L 1919.55 229.23
  L 1919.91 230.05
  L 1920.00 231.06"
/>
<path stroke="#8e8e95" vector-effect="non-scaling-stroke" d="
  M 370.44 1080.00
  L 370.40 1079.37
  L 370.06 1078.44
  L 0.95 262.49
  L 0.80 261.88
  L 0.56 261.26
  L 0.00 261.69"
/>
<path stroke="#f3cf85" vector-effect="non-scaling-stroke" d="
  M 252.44 1080.00
  L 252.64 1079.04
  L 252.50 1078.50
  L 0.46 521.21
  L 0.30 520.25
  L 0.22 519.65
  L 0.00 519.19"
/>
<path stroke="#dea32d" vector-effect="non-scaling-stroke" d="
  M 125.44 1080.00
  L 125.40 1078.66
  L 124.81 1076.94
  L 1.70 804.80
  L 0.80 803.14
  L 0.53 802.59
  L 0.11 801.21
  L 0.00 799.69"
/>
</g>
<g fill="#212737">
<path d="
  M 0.00 0.00
  L 451.81 0.00
  L 532.80 179.35
  L 625.00 382.50
  L 881.49 947.79
  L 896.26 980.77
  L 896.57 981.29
  L 896.88 981.47
  L 896.88 981.47
  L 897.20 981.30
  L 897.51 980.77
  L 1041.67 661.07
  L 1041.97 660.57
  L 1042.27 660.41
  L 1042.27 660.41
  L 1042.27 660.41
  L 1042.57 660.57
  L 1042.87 661.07
  L 1147.56 892.70
  L 1155.69 910.98
  L 1170.99 945.79
  L 1181.19 968.56
  L 1231.29 1079.04
  L 1231.30 1079.40
  L 1231.05 1079.65
  L 1231.05 1079.65
  L 1231.03 1079.66
  L 1229.94 1080.00
  L 476.94 1080.00
  L 476.19 1077.06
  L 2.31 29.19
  L 1.25 26.40
  L 0.51 23.43
  L 0.10 20.27
  L 0.00 16.94
  L 0.00 0.00
  Z"
/>
<path d="
  M 611.56 0.00
  L 1464.06 0.00
  L 1909.52 984.87
  L 1913.67 993.53
  L 1916.84 1000.82
  L 1918.52 1005.40
  L 1920.00 1010.06
  L 1920.00 1080.00
  L 1387.19 1080.00
  L 1385.91 1076.51
  L 1383.69 1071.31
  L 1263.06 800.94
  L 1247.14 765.96
  L 1238.73 747.80
  L 1121.45 485.07
  L 1121.28 484.27
  L 1121.45 483.46
  L 1281.30 128.70
  L 1281.32 128.65
  L 1281.26 128.35
  L 1281.00 128.20
  L 1277.07 127.95
  L 1274.15 127.99
  L 1267.34 128.22
  L 1205.53 127.96
  L 1143.73 128.15
  L 1132.90 127.96
  L 1128.51 127.96
  L 1122.05 128.27
  L 1121.62 128.41
  L 1121.30 128.74
  L 1119.19 132.94
  L 1080.78 218.21
  L 1042.56 303.57
  L 1042.05 304.43
  L 1041.53 304.71
  L 1041.53 304.71
  L 1041.02 304.43
  L 1040.51 303.57
  L 962.61 128.92
  L 962.04 128.25
  L 961.21 128.00
  L 893.46 127.97
  L 826.31 128.15
  L 803.18 127.99
  L 802.51 128.30
  L 802.33 129.01
  L 802.33 129.01
  L 802.39 129.19
  L 961.84 481.91
  L 961.94 482.38
  L 961.84 482.84
  L 897.50 626.15
  L 896.73 627.57
  L 895.71 628.93
  L 895.45 629.04
  L 895.20 628.91
  L 895.20 628.91
  L 895.16 628.85
  L 679.69 149.81
  L 673.26 135.94
  L 666.06 121.12
  L 661.46 111.65
  L 657.50 103.06
  L 631.13 44.10
  L 612.06 1.94
  L 611.65 0.83
  L 611.56 0.00
  Z"
/>
</g>
<g fill="#31364a">
<path d="
  M 451.81 0.00
  L 611.56 0.00
  L 611.65 0.83
  L 612.06 1.94
  L 631.13 44.10
  L 657.50 103.06
  L 661.46 111.65
  L 666.06 121.12
  L 673.26 135.94
  L 679.69 149.81
  L 895.16 628.85
  L 895.20 628.91
  L 895.45 629.04
  L 895.71 628.93
  L 896.73 627.57
  L 897.50 626.15
  L 961.84 482.84
  L 961.94 482.38
  L 961.84 481.91
  L 802.39 129.19
  L 802.33 129.01
  L 802.51 128.30
  L 803.18 127.99
  L 826.31 128.15
  L 893.46 127.97
  L 961.21 128.00
  L 962.04 128.25
  L 962.61 128.92
  L 1040.51 303.57
  L 1041.02 304.43
  L 1041.53 304.71
  L 1041.53 304.71
  L 1042.05 304.43
  L 1042.56 303.57
  L 1080.78 218.21
  L 1119.19 132.94
  L 1121.30 128.74
  L 1121.62 128.41
  L 1122.05 128.27
  L 1128.51 127.96
  L 1132.90 127.96
  L 1143.73 128.15
  L 1205.53 127.96
  L 1267.34 128.22
  L 1274.15 127.99
  L 1277.07 127.95
  L 1281.00 128.20
  L 1281.26 128.35
  L 1281.32 128.65
  L 1281.30 128.70
  L 1121.45 483.46
  L 1121.28 484.27
  L 1121.45 485.07
  L 1238.73 747.80
  L 1247.14 765.96
  L 1263.06 800.94
  L 1383.69 1071.31
  L 1385.91 1076.51
  L 1387.19 1080.00
  L 1229.94 1080.00
  L 1231.03 1079.66
  L 1231.05 1079.65
  L 1231.30 1079.40
  L 1231.29 1079.04
  L 1181.19 968.56
  L 1170.99 945.79
  L 1155.69 910.98
  L 1147.56 892.70
  L 1042.87 661.07
  L 1042.57 660.57
  L 1042.27 660.41
  L 1042.27 660.41
  L 1042.27 660.41
  L 1041.97 660.57
  L 1041.67 661.07
  L 897.51 980.77
  L 897.20 981.30
  L 896.88 981.47
  L 896.88 981.47
  L 896.57 981.29
  L 896.26 980.77
  L 881.49 947.79
  L 625.00 382.50
  L 532.80 179.35
  L 451.81 0.00
  Z"
/>
<path d="
  M 1464.06 0.00
  L 1571.31 0.00
  L 1571.31 0.65
  L 1571.56 1.44
  L 1919.19 770.31
  L 1919.62 770.81
  L 1920.00 770.31
  L 1920.00 1010.06
  L 1918.52 1005.40
  L 1916.84 1000.82
  L 1913.67 993.53
  L 1909.52 984.87
  L 1464.06 0.00
  Z"
/>
<path d="
  M 0.00 16.94
  L 0.10 20.27
  L 0.51 23.43
  L 1.25 26.40
  L 2.31 29.19
  L 476.19 1077.06
  L 476.94 1080.00
  L 370.44 1080.00
  L 370.40 1079.37
  L 370.06 1078.44
  L 0.95 262.49
  L 0.80 261.88
  L 0.56 261.26
  L 0.00 261.69
  L 0.00 16.94
  Z"
/>
</g>
<g fill="#ebe6e0">
<path d="
  M 1571.31 0.00
  L 1688.81 0.00
  L 1689.57 2.36
  L 1690.69 5.06
  L 1918.25 508.25
  L 1919.11 509.82
  L 1920.00 510.81
  L 1920.00 770.31
  L 1919.62 770.81
  L 1919.19 770.31
  L 1571.56 1.44
  L 1571.31 0.65
  L 1571.31 0.00
  Z"
/>
<path d="
  M 370.44 1080.00
  L 252.44 1080.00
  L 252.64 1079.04
  L 252.50 1078.50
  L 0.46 521.21
  L 0.30 520.25
  L 0.22 519.65
  L 0.00 519.19
  L 0.00 261.69
  L 0.56 261.26
  L 0.80 261.88
  L 0.95 262.49
  L 370.06 1078.44
  L 370.40 1079.37
  L 370.44 1080.00
  Z"
/>
</g>
<g fill="#fbb829">
<path d="
  M 1688.81 0.00
  L 1816.31 0.00
  L 1816.05 0.93
  L 1816.27 1.96
  L 1918.54 228.04
  L 1919.15 228.78
  L 1919.55 229.23
  L 1919.55 229.23
  L 1919.91 230.05
  L 1920.00 231.06
  L 1920.00 510.81
  L 1919.11 509.82
  L 1918.25 508.25
  L 1690.69 5.06
  L 1689.57 2.36
  L 1688.81 0.00
  Z"
/>
<path d="
  M 0.00 519.19
  L 0.22 519.65
  L 0.30 520.25
  L 0.46 521.21
  L 252.50 1078.50
  L 252.64 1079.04
  L 252.44 1080.00
  L 125.44 1080.00
  L 125.40 1078.66
  L 124.81 1076.94
  L 1.70 804.80
  L 0.80 803.14
  L 0.53 802.59
  L 0.11 801.21
  L 0.00 799.69
  L 0.00 519.19
  Z"
/>
</g>
<g fill="#c08d31">
<path d="
  M 1816.31 0.00
  L 1920.00 0.00
  L 1920.00 231.06
  L 1919.91 230.05
  L 1919.55 229.23
  L 1919.15 228.78
  L 1918.54 228.04
  L 1816.27 1.96
  L 1816.05 0.93
  L 1816.31 0.00
  Z"
/>
<path d="
  M 0.00 799.69
  L 0.11 801.21
  L 0.53 802.59
  L 0.80 803.14
  L 1.70 804.80
  L 124.81 1076.94
  L 125.40 1078.66
  L 125.44 1080.00
  L 0.00 1080.00
  L 0.00 799.69
  Z"
/>
</g>
</svg>
