<?xml version="1.0" encoding="UTF-8" standalone="no"?>
<svg xmlns="http://www.w3.org/2000/svg" version="1.2" baseProfile="tiny" viewBox="0 0 1920 1080">
<g stroke-width="2.00" fill="none" stroke-linecap="butt">
<path stroke="#292e40" vector-effect="non-scaling-stroke" d="
  M 20.56 0.00
  L 98.46 172.05
  L 157.07 301.60
  L 215.92 431.03
  L 235.60 474.16
  L 243.88 492.36
  L 479.57 1012.15
  L 479.86 1012.47
  L 480.20 1012.20
  L 482.01 1009.00
  L 624.86 691.76
  L 625.26 691.32
  L 625.66 691.76
  L 724.81 910.95
  L 732.97 929.21
  L 733.61 930.67
  L 733.61 930.67
  L 766.90 1005.45
  L 800.69 1080.00"
/>
<path stroke="#292e40" vector-effect="non-scaling-stroke" d="
  M 179.81 0.00
  L 180.65 1.07
  L 181.44 2.56
  L 239.77 132.64
  L 245.44 144.76
  L 253.56 161.19
  L 261.83 178.45
  L 273.67 204.43
  L 477.79 658.91
  L 478.24 659.66
  L 478.69 659.90
  L 478.69 659.90
  L 479.13 659.66
  L 479.58 658.91
  L 544.80 513.70
  L 544.79 512.80
  L 385.30 160.17
  L 385.24 160.00
  L 385.41 159.31
  L 386.06 159.00
  L 544.45 159.00
  L 545.17 159.21
  L 545.67 159.79
  L 623.77 335.00
  L 624.13 335.60
  L 624.48 335.80
  L 624.48 335.80
  L 624.48 335.80
  L 624.84 335.60
  L 625.20 335.00
  L 699.77 169.20
  L 699.94 168.43
  L 699.77 167.65
  L 630.23 12.51
  L 626.97 4.86
  L 625.06 0.00"
/>
<path stroke="#8f8f96" vector-effect="non-scaling-stroke" d="
  M 767.31 0.00
  L 767.38 0.80
  L 767.58 1.43
  L 1250.44 1080.00"
/>
<path stroke="#292e40" vector-effect="non-scaling-stroke" d="
  M 1108.44 1080.00
  L 1041.40 930.86
  L 974.54 781.62
  L 780.69 348.62
  L 780.32 348.00
  L 779.95 347.80
  L 779.59 348.01
  L 779.22 348.62
  L 706.37 510.76
  L 704.82 514.37
  L 704.82 516.33
  L 705.50 518.50
  L 746.42 609.80
  L 814.94 763.86
  L 823.25 782.05
  L 838.19 814.62
  L 859.06 860.94
  L 908.00 970.42
  L 956.69 1080.00"
/>
<path stroke="#f4d085" vector-effect="non-scaling-stroke" d="
  M 997.31 0.00
  L 1288.11 649.89
  L 1479.69 1077.56
  L 1480.26 1079.01
  L 1480.44 1080.00"
/>
<path stroke="#dda22d" vector-effect="non-scaling-stroke" d="
  M 1284.06 0.00
  L 1284.41 0.27
  L 1284.48 0.29
  L 1285.01 0.77
  L 1285.62 3.10
  L 1286.69 5.81
  L 1767.00 1078.50
  L 1767.28 1079.40
  L 1767.19 1080.00"
/>
</g>
<g fill="#202636">
<path d="
  M 0.00 0.00
  L 20.56 0.00
  L 98.46 172.05
  L 157.07 301.60
  L 215.92 431.03
  L 235.60 474.16
  L 243.88 492.36
  L 479.57 1012.15
  L 479.86 1012.47
  L 480.20 1012.20
  L 482.01 1009.00
  L 624.86 691.76
  L 625.26 691.32
  L 625.66 691.76
  L 724.81 910.95
  L 732.97 929.21
  L 733.61 930.67
  L 733.61 930.67
  L 766.90 1005.45
  L 800.69 1080.00
  L 0.00 1080.00
  L 0.00 0.00
  Z"
/>
<path d="
  M 179.81 0.00
  L 625.06 0.00
  L 626.97 4.86
  L 630.23 12.51
  L 699.77 167.65
  L 699.94 168.43
  L 699.77 169.20
  L 625.20 335.00
  L 624.84 335.60
  L 624.48 335.80
  L 624.48 335.80
  L 624.48 335.80
  L 624.13 335.60
  L 623.77 335.00
  L 545.67 159.79
  L 545.17 159.21
  L 544.45 159.00
  L 386.06 159.00
  L 385.41 159.31
  L 385.24 160.00
  L 385.24 160.00
  L 385.30 160.17
  L 544.79 512.80
  L 544.80 513.70
  L 479.58 658.91
  L 479.13 659.66
  L 478.69 659.90
  L 478.69 659.90
  L 478.24 659.66
  L 477.79 658.91
  L 273.67 204.43
  L 261.83 178.45
  L 253.56 161.19
  L 245.44 144.76
  L 239.77 132.64
  L 181.44 2.56
  L 180.65 1.07
  L 179.81 0.00
  Z"
/>
<path d="
  M 1108.44 1080.00
  L 956.69 1080.00
  L 908.00 970.42
  L 859.06 860.94
  L 838.19 814.62
  L 823.25 782.05
  L 814.94 763.86
  L 746.42 609.80
  L 705.50 518.50
  L 704.82 516.33
  L 704.82 514.37
  L 706.37 510.76
  L 779.22 348.62
  L 779.59 348.01
  L 779.95 347.80
  L 780.32 348.00
  L 780.69 348.62
  L 974.54 781.62
  L 1041.40 930.86
  L 1108.44 1080.00
  Z"
/>
</g>
<path fill="#31364a" d="
  M 20.56 0.00
  L 179.81 0.00
  L 180.65 1.07
  L 181.44 2.56
  L 239.77 132.64
  L 245.44 144.76
  L 253.56 161.19
  L 261.83 178.45
  L 273.67 204.43
  L 477.79 658.91
  L 478.24 659.66
  L 478.69 659.90
  L 478.69 659.90
  L 479.13 659.66
  L 479.58 658.91
  L 544.80 513.70
  L 544.79 512.80
  L 385.30 160.17
  L 385.24 160.00
  L 385.41 159.31
  L 386.06 159.00
  L 544.45 159.00
  L 545.17 159.21
  L 545.67 159.79
  L 623.77 335.00
  L 624.13 335.60
  L 624.48 335.80
  L 624.48 335.80
  L 624.48 335.80
  L 624.84 335.60
  L 625.20 335.00
  L 699.77 169.20
  L 699.94 168.43
  L 699.77 167.65
  L 630.23 12.51
  L 626.97 4.86
  L 625.06 0.00
  L 767.31 0.00
  L 767.38 0.80
  L 767.58 1.43
  L 1250.44 1080.00
  L 1108.44 1080.00
  L 1041.40 930.86
  L 974.54 781.62
  L 780.69 348.62
  L 780.32 348.00
  L 779.95 347.80
  L 779.59 348.01
  L 779.22 348.62
  L 706.37 510.76
  L 704.82 514.37
  L 704.82 516.33
  L 705.50 518.50
  L 746.42 609.80
  L 814.94 763.86
  L 823.25 782.05
  L 838.19 814.62
  L 859.06 860.94
  L 908.00 970.42
  L 956.69 1080.00
  L 800.69 1080.00
  L 766.90 1005.45
  L 733.61 930.67
  L 732.97 929.21
  L 724.81 910.95
  L 625.66 691.76
  L 625.26 691.32
  L 624.86 691.76
  L 482.01 1009.00
  L 480.20 1012.20
  L 479.86 1012.47
  L 479.57 1012.15
  L 243.88 492.36
  L 235.60 474.16
  L 215.92 431.03
  L 157.07 301.60
  L 98.46 172.05
  L 20.56 0.00
  Z"
/>
<path fill="#ece7e1" d="
  M 767.31 0.00
  L 997.31 0.00
  L 1288.11 649.89
  L 1479.69 1077.56
  L 1480.26 1079.01
  L 1480.44 1080.00
  L 1250.44 1080.00
  L 767.58 1.43
  L 767.38 0.80
  L 767.31 0.00
  Z"
/>
<path fill="#fbb829" d="
  M 997.31 0.00
  L 1284.06 0.00
  L 1284.41 0.27
  L 1284.48 0.29
  L 1285.01 0.77
  L 1285.62 3.10
  L 1286.69 5.81
  L 1767.00 1078.50
  L 1767.28 1079.40
  L 1767.19 1080.00
  L 1480.44 1080.00
  L 1480.26 1079.01
  L 1479.69 1077.56
  L 1288.11 649.89
  L 997.31 0.00
  Z"
/>
<path fill="#bf8c30" d="
  M 1284.06 0.00
  L 1920.00 0.00
  L 1920.00 1080.00
  L 1767.19 1080.00
  L 1767.28 1079.40
  L 1767.00 1078.50
  L 1286.69 5.81
  L 1285.62 3.10
  L 1285.01 0.77
  L 1284.48 0.29
  L 1284.41 0.27
  L 1284.06 0.00
  Z"
/>
</svg>
