<svg xmlns="http://www.w3.org/2000/svg" version="1.2" baseProfile="tiny" viewBox="0 0 3416 478" style="&#10;">
<path stroke="#aab3b2" stroke-opacity="0.851" stroke-width="2.00" fill="none" stroke-linecap="butt" vector-effect="non-scaling-stroke" d="   M 0.00 22.19   Q 0.63 19.06 0.00 15.94"/>
<defs xmlns="http://www.w3.org/2000/svg"><linearGradient gradientTransform="rotate(186, 0.5, 0.5)" x1="50%" y1="0%" x2="50%" y2="100%" id="ffflux-gradient"><stop stop-color="hsl(167, 72%, 60%)" stop-opacity="1" offset="0%"/><stop stop-color="hsl(272, 99%, 54%)" stop-opacity="1" offset="100%"/></linearGradient><filter id="ffflux-filter" x="-20%" y="-20%" width="140%" height="140%" filterUnits="objectBoundingBox" primitiveUnits="userSpaceOnUse" color-interpolation-filters="sRGB">
  <feTurbulence type="fractalNoise" baseFrequency="0.002 0.001" numOctaves="2" seed="191" stitchTiles="stitch" x="0%" y="0%" width="100%" height="100%" result="turbulence"/>
  <feGaussianBlur stdDeviation="18 68" x="0%" y="0%" width="100%" height="100%" in="turbulence" edgeMode="duplicate" result="blur"/>
  <feBlend mode="color-dodge" x="0%" y="0%" width="100%" height="100%" in="SourceGraphic" in2="blur" result="blend"/>
  <feColorMatrix type="saturate" values="3" x="0%" y="0%" width="100%" height="100%" in="blend" result="colormatrix"/>
</filter></defs>

<path fill="url(#ffflux-gradient)" d="   M 0.00 472.44   L 0.00 22.19   Q 0.63 19.06 0.00 15.94   L 0.00 7.44   L 0.26 7.24   A 1.05 0.50 -48.3 0 1 0.83 7.00   L 113.05 7.00   A 1.28 1.27 73.0 0 1 114.11 7.57   L 302.75 294.47   Q 303.50 295.60 303.50 294.24   L 303.50 7.52   A 0.52 0.52 -90.0 0 1 304.02 7.00   L 416.43 7.00   A 0.57 0.57 -90.0 0 1 417.00 7.57   L 416.94 472.44   A 0.50 0.50 -45.0 0 1 416.44 472.94   L 304.15 473.00   A 1.18 1.17 73.1 0 1 303.17 472.47   L 114.18 186.30   Q 113.81 185.74 113.81 186.41   L 113.75 472.23   A 0.71 0.70 -90.0 0 1 113.05 472.94   Q 57.47 473.05 1.50 473.00   Q 0.32 473.00 0.00 472.44   Z"/>
<path fill="#485d5c" fill-opacity="0.702" d="   M 0.00 15.94   Q 0.63 19.06 0.00 22.19   L 0.00 15.94   Z"/>
<g fill="url(#ffflux-gradient)">
<path d="   M 908.10 408.65   Q 882.38 382.98 865.99 350.54   Q 848.82 316.57 843.06 279.69   Q 837.68 245.17 841.54 209.50   Q 846.66 162.25 869.31 120.56   Q 894.18 74.80 937.77 44.15   Q 945.90 38.43 954.63 33.40   Q 1008.29 2.48 1072.25 0.50   Q 1133.31 -1.39 1187.44 24.31   Q 1221.96 40.71 1249.60 68.01   Q 1256.66 74.99 1263.10 82.74   Q 1307.09 135.64 1315.75 205.75   Q 1323.37 267.46 1303.19 324.58   Q 1299.82 334.13 1295.67 343.10   Q 1269.25 400.21 1217.52 435.92   Q 1209.38 441.55 1200.54 446.48   Q 1141.48 479.41 1072.75 477.60   Q 999.83 475.68 940.31 435.44   Q 923.70 424.21 908.10 408.65   Z   M 996.19 343.56   Q 1013.23 359.33 1034.79 366.63   Q 1064.87 376.81 1096.49 372.90   Q 1152.76 365.94 1181.47 319.85   Q 1186.71 311.43 1190.54 302.08   Q 1197.19 285.82 1200.00 267.75   Q 1205.97 229.31 1196.51 192.62   Q 1193.81 182.18 1190.21 173.65   Q 1182.25 154.81 1169.06 140.19   Q 1149.12 118.09 1119.45 109.16   Q 1097.36 102.51 1073.00 103.50   Q 1052.56 104.33 1034.13 110.69   Q 1024.52 114.00 1015.93 118.91   Q 984.66 136.77 969.65 170.60   Q 959.31 193.93 957.00 220.50   Q 954.43 250.13 960.35 277.98   Q 964.89 299.33 975.79 318.20   Q 983.86 332.16 996.19 343.56   Z"/>
<path d="   M 1495.35 186.55   Q 1494.75 185.65 1494.75 186.73   L 1494.75 472.31   A 0.69 0.69 0.3 0 1 1494.06 473.00   L 1381.92 473.00   A 0.92 0.92 -0.4 0 1 1381.00 472.08   L 1381.00 7.92   A 0.92 0.92 -0.0 0 1 1381.92 7.00   L 1494.25 7.00   A 0.95 0.94 73.4 0 1 1495.04 7.43   L 1683.90 294.70   Q 1684.50 295.60 1684.50 294.52   L 1684.50 7.50   A 0.50 0.50 -45.0 0 1 1685.00 7.00   L 1797.49 7.00   A 0.51 0.51 -89.3 0 1 1798.00 7.51   L 1798.00 472.50   A 0.50 0.50 -45.0 0 1 1797.50 473.00   L 1685.06 472.94   A 0.92 0.91 -16.3 0 1 1684.29 472.52   L 1495.35 186.55   Z"/>
<path d="   M 614.31 192.19   L 765.23 192.25   A 0.52 0.52 -90.0 0 1 765.75 192.77   L 765.75 279.26   A 0.55 0.55 89.9 0 1 765.20 279.81   L 614.29 279.94   A 0.54 0.54 -89.9 0 0 613.75 280.48   L 613.75 381.44   A 0.56 0.56 90.0 0 0 614.31 382.00   L 785.01 382.00   A 0.74 0.74 -45.0 0 1 785.75 382.74   L 785.69 472.31   A 0.69 0.69 0.3 0 1 785.00 473.00   L 500.56 472.94   A 0.38 0.37 90.0 0 1 500.19 472.56   L 500.06 7.70   A 0.70 0.70 -90.0 0 1 500.76 7.00   L 785.04 7.00   A 0.51 0.51 -89.3 0 1 785.55 7.51   L 785.56 97.46   A 0.54 0.54 -89.9 0 1 785.02 98.00   L 614.12 98.00   A 0.37 0.37 45.0 0 0 613.75 98.37   L 613.81 191.68   A 0.51 0.50 90.0 0 0 614.31 192.19   Z   M 615.57 382.32   Q 698.79 382.64 782.00 382.43   Q 786.64 382.41 782.50 382.40   Q 699.03 382.20 615.55 382.31   Q 615.06 382.31 615.57 382.32   Z"/>
<path d="   M 2138.81 288.99   L 2245.58 472.23   Q 2246.03 473.00 2245.14 473.00   L 2118.36 473.00   A 0.98 0.98 75.6 0 1 2117.50 472.49   L 2021.20 297.65   A 1.18 1.15 -14.3 0 0 2020.18 297.06   L 1994.45 297.06   A 0.71 0.70 -0.4 0 0 1993.75 297.76   L 1993.75 472.31   A 0.69 0.69 0.3 0 1 1993.06 473.00   L 1880.92 473.00   A 0.92 0.92 -0.4 0 1 1880.00 472.08   L 1880.00 7.92   A 0.92 0.92 -0.0 0 1 1880.92 7.00   Q 1976.25 7.00 2071.50 6.99   Q 2095.29 6.99 2118.68 11.36   Q 2139.02 15.16 2157.87 23.33   Q 2167.22 27.39 2175.64 32.49   Q 2234.12 67.95 2241.25 138.50   Q 2243.67 162.50 2238.45 186.31   Q 2236.26 196.28 2232.77 205.47   Q 2218.78 242.37 2186.94 265.19   Q 2166.09 280.12 2139.04 288.42   A 0.39 0.39 -23.2 0 0 2138.81 288.99   Z   M 2109.06 115.19   Q 2095.88 104.36 2078.82 102.34   Q 2075.96 102.00 2071.18 101.58   Q 2067.35 101.25 2063.50 101.25   Q 2029.25 101.25 1994.38 101.25   A 0.57 0.57 -0.0 0 0 1993.81 101.82   L 1993.75 216.19   A 0.56 0.56 90.0 0 0 1994.31 216.75   Q 2022.94 216.75 2051.43 216.75   Q 2068.01 216.75 2068.58 216.72   Q 2077.23 216.30 2085.62 214.29   Q 2096.69 211.62 2104.07 206.86   Q 2114.63 200.06 2120.19 188.69   Q 2124.71 179.43 2125.87 168.56   Q 2126.89 158.92 2125.96 149.93   Q 2124.99 140.56 2121.26 131.71   Q 2117.05 121.75 2109.06 115.19   Z"/>
<path d="   M 2602.68 390.81   L 2429.93 390.75   A 0.83 0.82 -80.6 0 0 2429.15 391.32   L 2401.73 472.30   A 1.04 1.02 -80.4 0 1 2400.76 473.00   L 2283.29 473.00   A 0.51 0.51 -80.0 0 1 2282.81 472.31   L 2450.86 7.95   A 1.45 1.45 -79.9 0 1 2452.22 7.00   L 2582.18 7.00   A 0.78 0.76 -9.6 0 1 2582.91 7.51   L 2751.13 472.34   A 0.45 0.45 80.3 0 1 2750.71 472.94   L 2631.84 473.00   A 1.05 1.04 -9.3 0 1 2630.85 472.29   L 2603.35 391.28   A 0.71 0.69 -9.1 0 0 2602.68 390.81   Z   M 2474.94 256.19   Q 2467.17 279.45 2459.44 302.32   A 0.52 0.51 -80.5 0 0 2459.92 303.00   L 2573.38 303.00   A 0.45 0.45 -9.3 0 0 2573.81 302.41   L 2516.87 134.12   Q 2516.33 132.52 2515.79 134.12   Q 2495.35 195.12 2474.94 256.19   Z   M 2571.71 303.37   A 0.12 0.12 0.0 0 0 2571.59 303.25   L 2461.67 303.25   A 0.12 0.12 0.0 0 0 2461.55 303.37   L 2461.55 303.39   A 0.12 0.12 0.0 0 0 2461.67 303.51   L 2571.59 303.51   A 0.12 0.12 0.0 0 0 2571.71 303.39   L 2571.71 303.37   Z"/>
<path d="   M 2802.19 472.10   L 2802.00 8.09   A 1.09 1.09 -0.1 0 1 2803.09 7.00   L 2915.06 7.00   A 0.69 0.69 -0.0 0 1 2915.75 7.69   L 2915.75 472.31   A 0.69 0.69 0.3 0 1 2915.06 473.00   L 2803.09 473.00   A 0.90 0.90 0.0 0 1 2802.19 472.10   Z"/>
<path d="   M 3301.44 294.18   L 3301.50 7.52   A 0.52 0.52 -90.0 0 1 3302.02 7.00   L 3414.43 7.00   A 0.57 0.57 -0.1 0 1 3415.00 7.57   L 3414.94 472.44   A 0.50 0.50 -45.0 0 1 3414.44 472.94   L 3302.16 473.00   A 1.21 1.19 72.9 0 1 3301.16 472.46   L 3112.18 186.30   Q 3111.81 185.74 3111.81 186.41   L 3111.75 472.31   A 0.69 0.69 0.3 0 1 3111.06 473.00   L 2998.93 473.00   A 0.93 0.93 89.9 0 1 2998.00 472.07   L 2998.06 7.81   A 0.81 0.81 -89.9 0 1 2998.87 7.00   L 3111.00 7.00   A 1.32 1.31 -16.7 0 1 3112.10 7.59   L 3300.67 294.41   Q 3301.44 295.59 3301.44 294.18   Z"/>
</g>

</svg>