<?xml version="1.0" encoding="UTF-8" standalone="no"?>
<svg xmlns="http://www.w3.org/2000/svg" version="1.2" baseProfile="tiny" viewBox="0 0 1024 1024">
<path fill="#212637" d="
  M 629.44 618.56
  L 629.25 618.36
  L 629.06 618.56
  L 482.14 944.86
  L 481.72 945.32
  L 481.30 944.86
  L 88.57 78.88
  L 88.53 78.75
  L 89.14 78.00
  L 250.10 78.00
  L 251.31 78.78
  L 480.10 587.48
  L 480.32 587.72
  L 480.53 587.48
  L 547.54 438.46
  L 547.64 438.00
  L 547.54 437.54
  L 385.41 78.85
  L 385.37 78.73
  L 385.96 78.00
  L 543.90 78.00
  L 545.60 77.88
  L 547.76 78.37
  L 548.79 79.87
  L 549.37 81.57
  L 627.99 257.78
  L 628.42 258.26
  L 628.85 257.78
  L 709.36 78.70
  L 710.45 78.00
  L 871.39 78.00
  L 872.14 78.93
  L 872.09 79.09
  L 709.71 439.79
  L 709.61 440.25
  L 709.71 440.71
  L 934.72 945.18
  L 934.43 945.74
  L 934.35 945.75
  L 777.88 945.75
  L 777.15 945.28
  L 629.44 618.56
  Z"
/>
</svg>
